<svg width="28" height="23" viewBox="0 0 28 23" fill="none" xmlns="http://www.w3.org/2000/svg">
<path d="M9.8 11.2C12.8931 11.2 15.4 8.69312 15.4 5.6C15.4 2.50687 12.8931 0 9.8 0C6.70687 0 4.2 2.50687 4.2 5.6C4.2 8.69312 6.70687 11.2 9.8 11.2ZM13.72 12.6H12.9894C12.0181 13.0462 10.9375 13.3 9.8 13.3C8.6625 13.3 7.58625 13.0462 6.61063 12.6H5.88C2.63375 12.6 0 15.2337 0 18.48V20.3C0 21.4594 0.940625 22.4 2.1 22.4H14.1269C14.0219 22.1025 13.9781 21.7875 14.0131 21.4681L14.3106 18.8037L14.3631 18.3181L14.7088 17.9725L18.0906 14.5906C17.0187 13.3787 15.4656 12.6 13.72 12.6ZM15.7019 18.9569L15.4044 21.6256C15.3562 22.0719 15.7325 22.4481 16.1744 22.3956L18.8388 22.0981L24.8719 16.065L21.735 12.9281L15.7019 18.9569ZM27.6938 11.7644L26.0356 10.1062C25.6287 9.69937 24.9637 9.69937 24.5569 10.1062L22.9031 11.76L22.7238 11.9394L25.865 15.0762L27.6938 13.2475C28.1006 12.8362 28.1006 12.1756 27.6938 11.7644Z" fill="#012138"/>
</svg>
